<svg style="overflow: hidden; position: absolute; left: 295px; top: 332px; " height="40" version="1.1" width="40" xmlns="http://www.w3.org/2000/svg"><desc style="-webkit-tap-highlight-color: rgba(0, 0, 0, 0); ">Created with Raphaël 2.1.0</desc><defs style="-webkit-tap-highlight-color: rgba(0, 0, 0, 0); "></defs><path style="-webkit-tap-highlight-color: rgba(0, 0, 0, 0); stroke-linejoin: round; opacity: 0; " fill="none" stroke="#ffffff" d="M16,1.466C7.973,1.466,1.466,7.973,1.466,16C1.466,24.027,7.973,30.534,16,30.534C24.027,30.534,30.534,24.027,30.534,15.999999999999998C30.534,7.973,24.027,1.466,16,1.466ZM24.386,14.968C22.935,16.637,20.68,17.189,18.701,16.554L11.513000000000002,24.82C10.747000000000002,25.7,9.414000000000001,25.79,8.534000000000002,25.025S7.561000000000003,22.926,8.326000000000002,22.046L15.524000000000003,13.770999999999999C14.631000000000002,11.905999999999999,14.867000000000003,9.607,16.311000000000003,7.946999999999999C17.678000000000004,6.371999999999999,19.764000000000003,5.795999999999999,21.659000000000002,6.273L18.905,9.485L19.806,12.106L22.528000000000002,12.635L25.289,9.415C26.037,11.229,25.762,13.387,24.386,14.968Z" stroke-width="3" stroke-linejoin="round" opacity="0" transform="matrix(1,0,0,1,4,4)"></path><path style="-webkit-tap-highlight-color: rgba(0, 0, 0, 0); " fill="#333333" stroke="none" d="M16,1.466C7.973,1.466,1.466,7.973,1.466,16C1.466,24.027,7.973,30.534,16,30.534C24.027,30.534,30.534,24.027,30.534,15.999999999999998C30.534,7.973,24.027,1.466,16,1.466ZM24.386,14.968C22.935,16.637,20.68,17.189,18.701,16.554L11.513000000000002,24.82C10.747000000000002,25.7,9.414000000000001,25.79,8.534000000000002,25.025S7.561000000000003,22.926,8.326000000000002,22.046L15.524000000000003,13.770999999999999C14.631000000000002,11.905999999999999,14.867000000000003,9.607,16.311000000000003,7.946999999999999C17.678000000000004,6.371999999999999,19.764000000000003,5.795999999999999,21.659000000000002,6.273L18.905,9.485L19.806,12.106L22.528000000000002,12.635L25.289,9.415C26.037,11.229,25.762,13.387,24.386,14.968Z" transform="matrix(1,0,0,1,4,4)"></path><rect style="-webkit-tap-highlight-color: rgba(0, 0, 0, 0); opacity: 0; " x="0" y="0" width="32" height="32" r="0" rx="0" ry="0" fill="#000000" stroke="#000" opacity="0"></rect></svg>
