<svg style="overflow: hidden; position: absolute; left: 295px; top: 591px; " height="40" version="1.1" width="40" xmlns="http://www.w3.org/2000/svg"><desc style="-webkit-tap-highlight-color: rgba(0, 0, 0, 0); ">Created with Raphaël 2.1.0</desc><defs style="-webkit-tap-highlight-color: rgba(0, 0, 0, 0); "></defs><path style="-webkit-tap-highlight-color: rgba(0, 0, 0, 0); stroke-linejoin: round; opacity: 1; " fill="none" stroke="#ffffff" d="M26.492,9.493c-0.771,0.343-1.602,0.574-2.473,0.678c0.89-0.533,1.562-1.376,1.893-2.382c-0.832,0.493-1.753,0.852-2.734,1.044c-0.785-0.837-1.902-1.359-3.142-1.359c-2.377,0-4.306,1.928-4.306,4.306c0,0.337,0.039,0.666,0.112,0.979c-3.578-0.18-6.75-1.894-8.874-4.499c-0.371,0.636-0.583,1.375-0.583,2.165c0,1.494,0.76,2.812,1.915,3.583c-0.706-0.022-1.37-0.216-1.95-0.538c0,0.018,0,0.036,0,0.053c0,2.086,1.484,3.829,3.454,4.222c-0.361,0.099-0.741,0.147-1.134,0.147c-0.278,0-0.547-0.023-0.81-0.076c0.548,1.711,2.138,2.955,4.022,2.99c-1.474,1.146-3.33,1.842-5.347,1.842c-0.348,0-0.69-0.021-1.027-0.062c1.905,1.225,4.168,1.938,6.6,1.938c7.919,0,12.248-6.562,12.248-12.25c0-0.187-0.002-0.372-0.01-0.557C25.186,11.115,25.915,10.356,26.492,9.493" transform="matrix(1,0,0,1,4,4)"></path><rect style="-webkit-tap-highlight-color: rgba(0, 0, 0, 0); opacity: 0; " x="0" y="0" width="32" height="32" r="0" rx="0" ry="0" fill="#000000" stroke="#000" opacity="0"></rect></svg>
