<svg height="40" version="1.1" width="40" xmlns="http://www.w3.org/2000/svg">
    <desc style="-webkit-tap-highlight-color: rgba(0, 0, 0, 0); ">Created with Raphaël 2.1.0</desc>
    <defs style="-webkit-tap-highlight-color: rgba(0, 0, 0, 0); "></defs>
    <path style="-webkit-tap-highlight-color: rgba(0, 0, 0, 0); stroke-linejoin: round; opacity: 0; " fill="none"
          stroke="800000"
          d="M22.121,24.438L18.759,16.590999999999998C18.43,15.821999999999997,18.16,14.509999999999998,18.16,13.673999999999998S18.673000000000002,12.152999999999999,19.3,12.152999999999999S20.441000000000003,11.639999999999999,20.441000000000003,11.012999999999998S19.756000000000004,9.872999999999998,18.92,9.872999999999998H12.080000000000002C11.244000000000002,9.872999999999998,10.560000000000002,10.385999999999997,10.560000000000002,11.012999999999998S11.073000000000002,12.152999999999999,11.700000000000003,12.152999999999999S12.840000000000003,12.838,12.840000000000003,13.674S12.571000000000003,15.822,12.241000000000003,16.591L8.879000000000003,24.438000000000002C8.55,25.206,8.28,26.177,8.28,26.595S8.622,27.698,9.04,28.116S10.483999999999998,28.876,11.319999999999999,28.876H19.679C20.514999999999997,28.876,21.540999999999997,28.534000000000002,21.959,28.116S22.719,27.012999999999998,22.719,26.595S22.45,25.206,22.121,24.438ZM16.582,7.625C16.582,8.224,17.066000000000003,8.708,17.665,8.708S18.747999999999998,8.224,18.747999999999998,7.625S18.263999999999996,6.541,17.665,6.541S16.582,7.026,16.582,7.625ZM13.667,7.792C13.943,7.792,14.167,7.568,14.167,7.292S13.943,6.792,13.667,6.792S13.167,7.016,13.167,7.292S13.391,7.792,13.667,7.792ZM15.584,5.292C16.458,5.292,17.166999999999998,4.583,17.166999999999998,3.7089999999999996C17.166999999999998,2.8339999999999996,16.458,2.1249999999999996,15.583999999999998,2.1249999999999996C14.709,2.125,14,2.834,14,3.709C14,4.583,14.709,5.292,15.584,5.292Z"
          stroke-width="3" stroke-linejoin="round" opacity="0" transform="matrix(1,0,0,1,4,4)"></path>
    <path style="-webkit-tap-highlight-color: rgba(0, 0, 0, 0); " fill="#800000" stroke="none"
          d="M22.121,24.438L18.759,16.590999999999998C18.43,15.821999999999997,18.16,14.509999999999998,18.16,13.673999999999998S18.673000000000002,12.152999999999999,19.3,12.152999999999999S20.441000000000003,11.639999999999999,20.441000000000003,11.012999999999998S19.756000000000004,9.872999999999998,18.92,9.872999999999998H12.080000000000002C11.244000000000002,9.872999999999998,10.560000000000002,10.385999999999997,10.560000000000002,11.012999999999998S11.073000000000002,12.152999999999999,11.700000000000003,12.152999999999999S12.840000000000003,12.838,12.840000000000003,13.674S12.571000000000003,15.822,12.241000000000003,16.591L8.879000000000003,24.438000000000002C8.55,25.206,8.28,26.177,8.28,26.595S8.622,27.698,9.04,28.116S10.483999999999998,28.876,11.319999999999999,28.876H19.679C20.514999999999997,28.876,21.540999999999997,28.534000000000002,21.959,28.116S22.719,27.012999999999998,22.719,26.595S22.45,25.206,22.121,24.438ZM16.582,7.625C16.582,8.224,17.066000000000003,8.708,17.665,8.708S18.747999999999998,8.224,18.747999999999998,7.625S18.263999999999996,6.541,17.665,6.541S16.582,7.026,16.582,7.625ZM13.667,7.792C13.943,7.792,14.167,7.568,14.167,7.292S13.943,6.792,13.667,6.792S13.167,7.016,13.167,7.292S13.391,7.792,13.667,7.792ZM15.584,5.292C16.458,5.292,17.166999999999998,4.583,17.166999999999998,3.7089999999999996C17.166999999999998,2.8339999999999996,16.458,2.1249999999999996,15.583999999999998,2.1249999999999996C14.709,2.125,14,2.834,14,3.709C14,4.583,14.709,5.292,15.584,5.292Z"
          transform="matrix(1,0,0,1,4,4)"></path>
    <rect style="-webkit-tap-highlight-color: rgba(0, 0, 0, 0); opacity: 0; " x="0" y="0" width="32" height="32" r="0"
          rx="0" ry="0" fill="#000000" stroke="#000" opacity="0"></rect>
</svg>
