<svg style="overflow: hidden; position: absolute; left: 221px; top: 221px; " height="40" version="1.1" width="40" xmlns="http://www.w3.org/2000/svg"><desc style="-webkit-tap-highlight-color: rgba(0, 0, 0, 0); ">Created with Raphaël 2.1.0</desc><defs style="-webkit-tap-highlight-color: rgba(0, 0, 0, 0); "></defs><path style="-webkit-tap-highlight-color: rgba(0, 0, 0, 0); stroke-linejoin: round; opacity: 0; " fill="none" stroke="none" d="M16,4.938C8.268,4.938,2,9.639,2,15.437999999999999C2,17.419,2.741,19.271,4.016,20.851999999999997L2,25.272L7.613,23.831999999999997C9.952,25.147999999999996,12.850000000000001,25.937999999999995,16,25.937999999999995C23.732,25.937999999999995,30,21.236999999999995,30,15.437999999999995S23.732,4.938,16,4.938ZM16.982,21.375H15.013V19.486H16.982V21.375ZM16.982,17.469V18.094H15.013V17.325000000000003C15.013,15.004000000000003,17.654,14.636000000000003,17.654,12.988000000000003C17.654,12.236000000000002,16.982,11.659000000000002,16.101,11.659000000000002C15.188999999999998,11.659000000000002,14.387999999999998,12.331000000000003,14.387999999999998,12.331000000000003L13.267999999999997,10.938000000000002C13.267999999999997,10.938000000000002,14.371999999999996,9.785000000000002,16.276999999999997,9.785000000000002C18.086999999999996,9.785000000000002,19.766999999999996,10.906000000000002,19.766999999999996,12.794000000000002C19.768,15.437,16.982,15.741,16.982,17.469Z" stroke-width="3" stroke-linejoin="round" opacity="0" transform="matrix(1,0,0,1,4,4)"></path><path style="-webkit-tap-highlight-color: rgba(0, 0, 0, 0); " fill="#FFFFFF" stroke="none" d="M16,4.938C8.268,4.938,2,9.639,2,15.437999999999999C2,17.419,2.741,19.271,4.016,20.851999999999997L2,25.272L7.613,23.831999999999997C9.952,25.147999999999996,12.850000000000001,25.937999999999995,16,25.937999999999995C23.732,25.937999999999995,30,21.236999999999995,30,15.437999999999995S23.732,4.938,16,4.938ZM16.982,21.375H15.013V19.486H16.982V21.375ZM16.982,17.469V18.094H15.013V17.325000000000003C15.013,15.004000000000003,17.654,14.636000000000003,17.654,12.988000000000003C17.654,12.236000000000002,16.982,11.659000000000002,16.101,11.659000000000002C15.188999999999998,11.659000000000002,14.387999999999998,12.331000000000003,14.387999999999998,12.331000000000003L13.267999999999997,10.938000000000002C13.267999999999997,10.938000000000002,14.371999999999996,9.785000000000002,16.276999999999997,9.785000000000002C18.086999999999996,9.785000000000002,19.766999999999996,10.906000000000002,19.766999999999996,12.794000000000002C19.768,15.437,16.982,15.741,16.982,17.469Z" transform="matrix(1,0,0,1,4,4)"></path><rect style="-webkit-tap-highlight-color: rgba(0, 0, 0, 0); opacity: 0; " x="0" y="0" width="32" height="32" r="0" rx="0" ry="0" fill="#000000" stroke="#000" opacity="0"></rect></svg>
