<svg style="overflow: hidden; position: absolute; left: 295px; top: 443px; " height="40" version="1.1" width="40" xmlns="http://www.w3.org/2000/svg"><desc style="-webkit-tap-highlight-color: rgba(0, 0, 0, 0); ">Created with Raphaël 2.1.0</desc><defs style="-webkit-tap-highlight-color: rgba(0, 0, 0, 0); "></defs><path style="-webkit-tap-highlight-color: rgba(0, 0, 0, 0); stroke-linejoin: round; opacity: 0; " fill="none" stroke="none" d="M27.188,4.875V5.969H22.688V4.875H8.062V5.969H3.5619999999999994V4.875H2.5619999999999994V26.125H3.5619999999999994V25.031H8.062V26.125H22.686999999999998V25.031H27.186999999999998V26.125H28.436999999999998V4.875H27.188ZM8.062,23.719H3.5619999999999994V20.594H8.062V23.719ZM8.062,19.281H3.5619999999999994V16.156H8.062V19.281ZM8.062,14.844H3.5619999999999994V11.719H8.062V14.844ZM8.062,10.406H3.5619999999999994V7.281H8.062V10.406ZM11.247,20.59V9.754L20.628999999999998,15.172L11.247,20.59ZM27.188,23.719H22.688V20.594H27.188V23.719ZM27.188,19.281H22.688V16.156H27.188V19.281ZM27.188,14.844H22.688V11.719H27.188V14.844ZM27.188,10.406H22.688V7.281H27.188V10.406Z" stroke-width="3" stroke-linejoin="round" opacity="0" transform="matrix(1,0,0,1,4,4)"></path><path style="-webkit-tap-highlight-color: rgba(0, 0, 0, 0); " fill="#800000" stroke="none" d="M27.188,4.875V5.969H22.688V4.875H8.062V5.969H3.5619999999999994V4.875H2.5619999999999994V26.125H3.5619999999999994V25.031H8.062V26.125H22.686999999999998V25.031H27.186999999999998V26.125H28.436999999999998V4.875H27.188ZM8.062,23.719H3.5619999999999994V20.594H8.062V23.719ZM8.062,19.281H3.5619999999999994V16.156H8.062V19.281ZM8.062,14.844H3.5619999999999994V11.719H8.062V14.844ZM8.062,10.406H3.5619999999999994V7.281H8.062V10.406ZM11.247,20.59V9.754L20.628999999999998,15.172L11.247,20.59ZM27.188,23.719H22.688V20.594H27.188V23.719ZM27.188,19.281H22.688V16.156H27.188V19.281ZM27.188,14.844H22.688V11.719H27.188V14.844ZM27.188,10.406H22.688V7.281H27.188V10.406Z" transform="matrix(1,0,0,1,4,4)"></path><rect style="-webkit-tap-highlight-color: rgba(0, 0, 0, 0); opacity: 0; " x="0" y="0" width="32" height="32" r="0" rx="0" ry="0" fill="#000000" stroke="#000" opacity="0"></rect></svg>
