<svg style="overflow: hidden; position: absolute; left: 73px; top: 258px; " height="40" version="1.1" width="40" xmlns="http://www.w3.org/2000/svg"><desc style="-webkit-tap-highlight-color: rgba(0, 0, 0, 0); ">Created with Raphaël 2.1.0</desc><defs style="-webkit-tap-highlight-color: rgba(0, 0, 0, 0); "></defs><path style="-webkit-tap-highlight-color: rgba(0, 0, 0, 0); stroke-linejoin: round; opacity: 0; " fill="none" stroke="none" d="M15.985,5.972C8.422,5.972,2.289999999999999,10.049,2.289999999999999,15.078C2.289999999999999,17.955,4.302999999999999,20.518,7.436999999999999,22.186C6.991,23.665,6.100999999999999,25.303,4.380999999999999,26.752C4.380999999999999,26.752,8.395999999999999,26.485999999999997,11.232,23.608999999999998C11.395,23.648999999999997,11.564,23.679,11.729,23.715999999999998C11.574,23.253999999999998,11.482999999999999,22.772999999999996,11.482999999999999,22.272999999999996C11.482999999999999,18.879999999999995,15.258999999999999,16.222999999999995,20.082,16.222999999999995C23.546,16.222999999999995,26.461,17.598999999999997,27.833000000000002,19.628999999999994C29.001,18.288999999999994,29.680000000000003,16.736999999999995,29.680000000000003,15.076999999999995C29.68,10.049,23.548,5.972,15.985,5.972ZM27.68,22.274C27.68,19.484,24.279,17.221,20.081,17.221C15.885,17.221,12.482,19.484,12.482,22.274C12.482,25.065,15.885,27.327,20.081,27.327C21.009999999999998,27.327,21.895,27.211000000000002,22.718,27.008000000000003C24.291,28.605000000000004,26.519,28.752000000000002,26.519,28.752000000000002C25.564999999999998,27.948000000000004,25.072,27.039,24.823999999999998,26.218000000000004C26.562,25.293,27.68,23.871,27.68,22.274Z" stroke-width="3" stroke-linejoin="round" opacity="0" transform="matrix(1,0,0,1,4,4)"></path><path style="-webkit-tap-highlight-color: rgba(0, 0, 0, 0); " fill="#FFFFFF" stroke="none" d="M15.985,5.972C8.422,5.972,2.289999999999999,10.049,2.289999999999999,15.078C2.289999999999999,17.955,4.302999999999999,20.518,7.436999999999999,22.186C6.991,23.665,6.100999999999999,25.303,4.380999999999999,26.752C4.380999999999999,26.752,8.395999999999999,26.485999999999997,11.232,23.608999999999998C11.395,23.648999999999997,11.564,23.679,11.729,23.715999999999998C11.574,23.253999999999998,11.482999999999999,22.772999999999996,11.482999999999999,22.272999999999996C11.482999999999999,18.879999999999995,15.258999999999999,16.222999999999995,20.082,16.222999999999995C23.546,16.222999999999995,26.461,17.598999999999997,27.833000000000002,19.628999999999994C29.001,18.288999999999994,29.680000000000003,16.736999999999995,29.680000000000003,15.076999999999995C29.68,10.049,23.548,5.972,15.985,5.972ZM27.68,22.274C27.68,19.484,24.279,17.221,20.081,17.221C15.885,17.221,12.482,19.484,12.482,22.274C12.482,25.065,15.885,27.327,20.081,27.327C21.009999999999998,27.327,21.895,27.211000000000002,22.718,27.008000000000003C24.291,28.605000000000004,26.519,28.752000000000002,26.519,28.752000000000002C25.564999999999998,27.948000000000004,25.072,27.039,24.823999999999998,26.218000000000004C26.562,25.293,27.68,23.871,27.68,22.274Z" transform="matrix(1,0,0,1,4,4)"></path><rect style="-webkit-tap-highlight-color: rgba(0, 0, 0, 0); opacity: 0; " x="0" y="0" width="32" height="32" r="0" rx="0" ry="0" fill="#000000" stroke="#000" opacity="0"></rect></svg>
