<svg style="overflow: hidden; position: absolute; left: 369px; top: 443px; " height="40" version="1.1" width="40" xmlns="http://www.w3.org/2000/svg"><desc style="-webkit-tap-highlight-color: rgba(0, 0, 0, 0); ">Created with Raphaël 2.1.0</desc><defs style="-webkit-tap-highlight-color: rgba(0, 0, 0, 0); "></defs><path style="-webkit-tap-highlight-color: rgba(0, 0, 0, 0); stroke-linejoin: round; opacity: 0; " fill="none" stroke="none" d="M24.132,7.971C21.929000000000002,5.766,18.216,5.873,15.882000000000001,8.206L15.5,8.588L15.118,8.206C12.784,5.872999999999999,9.071000000000002,5.766,6.868,7.970999999999999C4.664,10.174,4.7700000000000005,13.887,7.103000000000001,16.22L15.499000000000002,24.616L23.895000000000003,16.22C26.229,13.887,26.336,10.174,24.132,7.971Z" stroke-width="3" stroke-linejoin="round" opacity="0" transform="matrix(1,0,0,1,4,4)"></path><path style="-webkit-tap-highlight-color: rgba(0, 0, 0, 0); " fill="#FFFFFF" stroke="none" d="M24.132,7.971C21.929000000000002,5.766,18.216,5.873,15.882000000000001,8.206L15.5,8.588L15.118,8.206C12.784,5.872999999999999,9.071000000000002,5.766,6.868,7.970999999999999C4.664,10.174,4.7700000000000005,13.887,7.103000000000001,16.22L15.499000000000002,24.616L23.895000000000003,16.22C26.229,13.887,26.336,10.174,24.132,7.971Z" transform="matrix(1,0,0,1,4,4)"></path><rect style="-webkit-tap-highlight-color: rgba(0, 0, 0, 0); opacity: 0; " x="0" y="0" width="32" height="32" r="0" rx="0" ry="0" fill="#000000" stroke="#000" opacity="0"></rect></svg>
